<svg width="77" height="92" viewBox="0 0 77 92" fill="none" xmlns="http://www.w3.org/2000/svg">
<path d="M25.498 40C28.8314 40.8334 35.598 44.3 35.998 51.5C36.398 58.7 35.998 71.5001 35.998 81.0001C35.998 90.5001 21.0041 93.0001 20.498 81.0001L21 36.5C21 36.5 24 22.5 39.5 22.5C55 22.5 57.9981 37.5001 57.9981 37.5001C57.6323 63.8521 57.9981 65.5001 57.9981 65.5001C55.3314 69.1667 49.0981 74.3001 45.4981 65.5001V49.0001C45.8314 46.5 47.8981 40.7001 53.4981 37.5001" stroke="#2A3A76" stroke-width="5"/>
<path d="M0.5 77C0.5 78.3807 1.61929 79.5 3 79.5C4.38071 79.5 5.5 78.3807 5.5 77H0.5ZM3 51.5L0.529071 51.1199L0.5 51.3088V51.5H3ZM5.5 77V51.5H0.5V77H5.5ZM5.47093 51.8801C5.7547 50.0357 6.67504 47.2012 8.43746 44.8916C10.1472 42.651 12.5527 41 16 41V36C10.6473 36 6.88613 38.6823 4.46254 41.8584C2.09163 44.9655 0.91197 48.631 0.529071 51.1199L5.47093 51.8801Z" fill="#0696E7"/>
<path d="M77 76.5C77 77.8807 75.8807 79 74.5 79C73.1193 79 72 77.8807 72 76.5H77ZM74.5 51L76.9709 50.6199L77 50.8088V51H74.5ZM72 76.5V51H77V76.5H72ZM72.0291 51.3801C71.7453 49.5357 70.825 46.7012 69.0625 44.3916C67.3528 42.151 64.9473 40.5 61.5 40.5V35.5C66.8527 35.5 70.6139 38.1823 73.0375 41.3584C75.4084 44.4655 76.588 48.131 76.9709 50.6199L72.0291 51.3801Z" fill="#F9AC42"/>
<circle cx="39.5" cy="8" r="6" stroke="#2A3A76" stroke-width="4"/>
<circle cx="64.5" cy="24" r="6" stroke="#F9AC42" stroke-width="4"/>
<circle cx="16.5" cy="20" r="6" stroke="#0696E7" stroke-width="4"/>
</svg>
