<svg width="50" height="50" viewBox="0 0 50 50" fill="none" xmlns="http://www.w3.org/2000/svg">
<circle cx="25" cy="25" r="25" fill="#00A429"/>
<path d="M30.2004 28.6855C31.4677 29.6324 32.6004 32.0165 32.6004 33.4855C32.6004 33.9431 32.2665 34.3141 31.8546 34.3141H31.4004M26.6004 24.8043C27.4202 24.3301 27.9718 23.4436 27.9718 22.4284C27.9718 21.4132 27.4202 20.5267 26.6004 20.0525M14.1462 34.3141H27.2832C27.6951 34.3141 28.029 33.9431 28.029 33.4855C28.029 30.6089 25.6257 28.2769 20.7147 28.2769C15.8037 28.2769 13.4004 30.6089 13.4004 33.4855C13.4004 33.9431 13.7343 34.3141 14.1462 34.3141ZM23.4575 22.4284C23.4575 23.9432 22.2295 25.1713 20.7147 25.1713C19.1998 25.1713 17.9718 23.9432 17.9718 22.4284C17.9718 20.9136 19.1998 19.6855 20.7147 19.6855C22.2295 19.6855 23.4575 20.9136 23.4575 22.4284Z" stroke="white" stroke-width="2" stroke-linecap="round"/>
<path d="M23.5068 14.9259C24.6609 15.127 25.7092 15.6937 26.5461 16.5621C27.383 17.4305 27.9248 18.5182 28.123 19.7156M23.683 11C25.7357 11.3611 27.6077 12.3711 29.0965 13.9113C30.5853 15.4561 31.5544 17.3985 31.9024 19.5283" stroke="white" stroke-width="2" stroke-linecap="round" stroke-linejoin="round"/>
</svg>
